# xmcd
#
# Track frame offsets: 
#        150
#        12777
#        22632
#        38256
#        48963
#        62799
#        76635
#        91515
#        102572
#        115974
#        128538
#        150461
#        161799
#        172586
#
# Disc length: 2513 seconds
#
# Revision: 1
# Processed by: cddbd v1.5.2PL0 Copyright (c) Steve Scherf et al.
# Submitted via: ExactAudioCopy v1.0b1
#
DISCID=8609cf0e
DTITLE=Cherry Lee Mewis - Southbound Train
DYEAR=2010
DGENRE=Blues
TTITLE0=All You Need
TTITLE1=Shake That Thing
TTITLE2=Midnight In Memphis
TTITLE3=Oh Lord Send Me An Angel Down
TTITLE4=Travellin' Light
TTITLE5=It Means Nothing To Me
TTITLE6=Let's Go Back To The Beginning
TTITLE7=Kissing In The Dark
TTITLE8=Time Limits
TTITLE9=Southbound Train
TTITLE10=Dancing Like Diamonds
TTITLE11=Western Star
TTITLE12=Tried Everything
TTITLE13=Something You Can't Have
EXTD=
EXTT0=
EXTT1=
EXTT2=
EXTT3=
EXTT4=
EXTT5=
EXTT6=
EXTT7=
EXTT8=
EXTT9=
EXTT10=
EXTT11=
EXTT12=
EXTT13=
PLAYORDER=
